<mxfile host="Electron" agent="Mozilla/5.0 (Macintosh; Intel Mac OS X 10_15_7) AppleWebKit/537.36 (KHTML, like Gecko) draw.io/26.0.16 Chrome/132.0.6834.196 Electron/34.2.0 Safari/537.36" version="26.0.16">
  <diagram id="yPxyJZ8AM_hMuL3Unpa9" name="gitflow">
    <mxGraphModel dx="1537" dy="708" grid="0" gridSize="10" guides="1" tooltips="1" connect="1" arrows="1" fold="1" page="0" pageScale="1" pageWidth="850" pageHeight="1100" math="0" shadow="0">
      <root>
        <mxCell id="0" />
        <mxCell id="1" parent="0" />
        <mxCell id="C2meHH0dxPaNBHatuUxs-289" style="edgeStyle=orthogonalEdgeStyle;rounded=1;orthogonalLoop=1;jettySize=auto;html=1;exitX=1;exitY=0.5;exitDx=0;exitDy=0;dashed=1;strokeColor=light-dark(#647687,#7D8C9B);align=center;verticalAlign=middle;fontFamily=Helvetica;fontSize=10;fontColor=#FFB570;labelBackgroundColor=default;endArrow=none;endFill=0;fillColor=#ffe6cc;strokeWidth=2;entryX=0;entryY=0.5;entryDx=0;entryDy=0;" parent="1" source="42" target="Bp6myUyQwJXxxmk4WZvx-211" edge="1">
          <mxGeometry relative="1" as="geometry">
            <mxPoint x="830" y="110" as="targetPoint" />
          </mxGeometry>
        </mxCell>
        <mxCell id="D5p6vvqvgfSBNJeM-XyV-148" value="" style="rounded=1;whiteSpace=wrap;html=1;fillColor=none;strokeWidth=2;" parent="1" vertex="1">
          <mxGeometry x="920" y="420" width="150" height="400" as="geometry" />
        </mxCell>
        <mxCell id="OCvB6RJx3Zg24RctwsK6-132" value="" style="rounded=1;whiteSpace=wrap;html=1;fillColor=none;strokeWidth=2;" parent="1" vertex="1">
          <mxGeometry x="620" y="420" width="260" height="400" as="geometry" />
        </mxCell>
        <mxCell id="OCvB6RJx3Zg24RctwsK6-136" value="" style="rounded=1;whiteSpace=wrap;html=1;fillColor=none;strokeWidth=2;" parent="1" vertex="1">
          <mxGeometry x="850" y="100" width="650" height="180" as="geometry" />
        </mxCell>
        <mxCell id="C2meHH0dxPaNBHatuUxs-290" style="edgeStyle=orthogonalEdgeStyle;rounded=1;orthogonalLoop=1;jettySize=auto;html=1;exitX=1;exitY=0.5;exitDx=0;exitDy=0;entryX=0;entryY=0.5;entryDx=0;entryDy=0;dashed=1;strokeColor=light-dark(#76608A,#A18EB3);align=center;verticalAlign=middle;fontFamily=Helvetica;fontSize=11;fontColor=default;labelBackgroundColor=default;endArrow=none;endFill=0;fillColor=#76608a;strokeWidth=2;" parent="1" source="C2meHH0dxPaNBHatuUxs-291" target="C2meHH0dxPaNBHatuUxs-192" edge="1">
          <mxGeometry relative="1" as="geometry" />
        </mxCell>
        <mxCell id="24" value="develop" style="text;html=1;strokeColor=#432D57;fillColor=#76608a;align=center;verticalAlign=middle;whiteSpace=wrap;rounded=0;fontColor=#ffffff;" parent="1" vertex="1">
          <mxGeometry x="-90" y="200" width="90" height="20" as="geometry" />
        </mxCell>
        <mxCell id="114" style="edgeStyle=orthogonalEdgeStyle;rounded=1;orthogonalLoop=1;jettySize=auto;html=1;dashed=1;endArrow=none;endFill=0;fontSize=12;fontColor=#FFB570;fillColor=#1ba1e2;strokeColor=#1BA1E2;entryX=1;entryY=0.5;entryDx=0;entryDy=0;strokeWidth=2;align=center;verticalAlign=middle;fontFamily=Helvetica;labelBackgroundColor=default;" parent="1" source="27" target="65" edge="1">
          <mxGeometry relative="1" as="geometry">
            <Array as="points">
              <mxPoint x="240" y="260" />
            </Array>
          </mxGeometry>
        </mxCell>
        <mxCell id="C2meHH0dxPaNBHatuUxs-199" style="edgeStyle=orthogonalEdgeStyle;rounded=1;orthogonalLoop=1;jettySize=auto;html=1;exitX=1;exitY=0.5;exitDx=0;exitDy=0;dashed=1;strokeColor=light-dark(#76608A,#A18EB3);align=center;verticalAlign=middle;fontFamily=Helvetica;fontSize=11;fontColor=default;labelBackgroundColor=default;endArrow=none;endFill=0;fillColor=#76608a;strokeWidth=2;" parent="1" source="27" target="C2meHH0dxPaNBHatuUxs-200" edge="1">
          <mxGeometry relative="1" as="geometry">
            <mxPoint x="330" y="120" as="targetPoint" />
            <Array as="points">
              <mxPoint x="310" y="210" />
              <mxPoint x="310" y="170" />
              <mxPoint x="311" y="170" />
              <mxPoint x="311" y="130" />
            </Array>
          </mxGeometry>
        </mxCell>
        <mxCell id="27" value="" style="ellipse;whiteSpace=wrap;html=1;aspect=fixed;fillColor=#76608a;strokeColor=#432D57;align=center;verticalAlign=middle;fontFamily=Helvetica;fontSize=12;fontColor=#ffffff;" parent="1" vertex="1">
          <mxGeometry x="229.97000000000003" y="200" width="20" height="20" as="geometry" />
        </mxCell>
        <mxCell id="28" style="edgeStyle=orthogonalEdgeStyle;rounded=1;orthogonalLoop=1;jettySize=auto;html=1;dashed=1;endArrow=none;endFill=0;fillColor=#76608a;strokeColor=light-dark(#76608A,#A18EB3);exitX=1;exitY=0.5;exitDx=0;exitDy=0;strokeWidth=2;align=center;verticalAlign=middle;fontFamily=Helvetica;fontSize=11;fontColor=default;labelBackgroundColor=default;" parent="1" source="C2meHH0dxPaNBHatuUxs-192" target="27" edge="1">
          <mxGeometry relative="1" as="geometry">
            <mxPoint x="640" y="240" as="targetPoint" />
            <mxPoint x="139.97000000000003" y="210" as="sourcePoint" />
          </mxGeometry>
        </mxCell>
        <mxCell id="29" value="" style="ellipse;whiteSpace=wrap;html=1;aspect=fixed;fillColor=#76608a;strokeColor=#432D57;align=center;verticalAlign=middle;fontFamily=Helvetica;fontSize=12;fontColor=#ffffff;" parent="1" vertex="1">
          <mxGeometry x="460" y="200" width="20" height="20" as="geometry" />
        </mxCell>
        <mxCell id="30" style="edgeStyle=orthogonalEdgeStyle;rounded=1;orthogonalLoop=1;jettySize=auto;html=1;dashed=1;endArrow=none;endFill=0;fillColor=#76608a;strokeColor=light-dark(#76608A,#A18EB3);strokeWidth=2;align=center;verticalAlign=middle;fontFamily=Helvetica;fontSize=11;fontColor=default;labelBackgroundColor=default;" parent="1" source="27" target="29" edge="1">
          <mxGeometry relative="1" as="geometry">
            <mxPoint x="640" y="240" as="targetPoint" />
            <mxPoint x="330" y="240" as="sourcePoint" />
          </mxGeometry>
        </mxCell>
        <mxCell id="42" value="main" style="text;html=1;strokeColor=#314354;fillColor=#647687;align=center;verticalAlign=middle;whiteSpace=wrap;rounded=0;fontSize=12;fontColor=#ffffff;opacity=86;" parent="1" vertex="1">
          <mxGeometry x="-90" y="120" width="90" height="20" as="geometry" />
        </mxCell>
        <mxCell id="63" value="" style="ellipse;whiteSpace=wrap;html=1;aspect=fixed;fontSize=12;fillColor=#1ba1e2;strokeColor=#006EAF;rounded=0;align=center;verticalAlign=middle;fontFamily=Helvetica;fontColor=#ffffff;gradientColor=none;" parent="1" vertex="1">
          <mxGeometry x="90" y="250" width="20" height="20" as="geometry" />
        </mxCell>
        <mxCell id="99" style="edgeStyle=orthogonalEdgeStyle;rounded=1;orthogonalLoop=1;jettySize=auto;html=1;dashed=1;endArrow=none;endFill=0;fontSize=12;fontColor=#FFB570;fillColor=#1ba1e2;strokeColor=#1BA1E2;exitX=1;exitY=0.5;exitDx=0;exitDy=0;strokeWidth=2;align=center;verticalAlign=middle;fontFamily=Helvetica;labelBackgroundColor=default;" parent="1" source="C2meHH0dxPaNBHatuUxs-192" target="71" edge="1">
          <mxGeometry relative="1" as="geometry">
            <mxPoint x="190" y="210" as="sourcePoint" />
            <Array as="points">
              <mxPoint x="200" y="210" />
              <mxPoint x="200" y="300" />
            </Array>
          </mxGeometry>
        </mxCell>
        <mxCell id="65" value="" style="ellipse;whiteSpace=wrap;html=1;aspect=fixed;fontSize=12;fillColor=#1ba1e2;strokeColor=#006EAF;rounded=0;align=center;verticalAlign=middle;fontFamily=Helvetica;fontColor=#ffffff;gradientColor=none;" parent="1" vertex="1">
          <mxGeometry x="150.00000000000003" y="250" width="20" height="20" as="geometry" />
        </mxCell>
        <mxCell id="100" style="edgeStyle=orthogonalEdgeStyle;rounded=1;orthogonalLoop=1;jettySize=auto;html=1;dashed=1;endArrow=none;endFill=0;fontSize=12;fontColor=#FFB570;fillColor=#1ba1e2;strokeColor=#1BA1E2;entryX=0;entryY=0.5;entryDx=0;entryDy=0;exitX=1;exitY=0.5;exitDx=0;exitDy=0;strokeWidth=2;align=center;verticalAlign=middle;fontFamily=Helvetica;labelBackgroundColor=default;" parent="1" source="C2meHH0dxPaNBHatuUxs-183" target="29" edge="1">
          <mxGeometry relative="1" as="geometry">
            <mxPoint x="360" y="250" as="targetPoint" />
            <Array as="points">
              <mxPoint x="440" y="300" />
              <mxPoint x="440" y="210" />
            </Array>
          </mxGeometry>
        </mxCell>
        <mxCell id="C2meHH0dxPaNBHatuUxs-184" style="edgeStyle=orthogonalEdgeStyle;rounded=1;orthogonalLoop=1;jettySize=auto;html=1;entryX=0;entryY=0.5;entryDx=0;entryDy=0;dashed=1;strokeColor=#1BA1E2;align=center;verticalAlign=middle;fontFamily=Helvetica;fontSize=12;fontColor=#FFB570;labelBackgroundColor=default;endArrow=none;endFill=0;fillColor=#1ba1e2;strokeWidth=2;" parent="1" source="71" target="C2meHH0dxPaNBHatuUxs-182" edge="1">
          <mxGeometry relative="1" as="geometry" />
        </mxCell>
        <mxCell id="71" value="" style="ellipse;whiteSpace=wrap;html=1;aspect=fixed;fontSize=12;fillColor=#1ba1e2;strokeColor=#006EAF;rounded=0;align=center;verticalAlign=middle;fontFamily=Helvetica;fontColor=#ffffff;gradientColor=none;" parent="1" vertex="1">
          <mxGeometry x="249.97000000000003" y="290" width="20" height="20" as="geometry" />
        </mxCell>
        <mxCell id="82" style="edgeStyle=orthogonalEdgeStyle;rounded=1;orthogonalLoop=1;jettySize=auto;html=1;dashed=1;endArrow=none;endFill=0;fillColor=#76608a;strokeColor=light-dark(#76608A,#A18EB3);strokeWidth=2;align=center;verticalAlign=middle;fontFamily=Helvetica;fontSize=11;fontColor=default;labelBackgroundColor=default;" parent="1" source="C2meHH0dxPaNBHatuUxs-220" target="92" edge="1">
          <mxGeometry relative="1" as="geometry">
            <mxPoint x="460" y="220" as="targetPoint" />
            <mxPoint x="420" y="220" as="sourcePoint" />
          </mxGeometry>
        </mxCell>
        <mxCell id="85" value="/feature 1" style="text;html=1;align=center;verticalAlign=middle;whiteSpace=wrap;rounded=0;fillColor=#1ba1e2;strokeColor=#006EAF;fontColor=#ffffff;" parent="1" vertex="1">
          <mxGeometry x="-90" y="250" width="90" height="20" as="geometry" />
        </mxCell>
        <mxCell id="86" value="/feature 2" style="text;html=1;strokeColor=#006EAF;fillColor=#1ba1e2;align=center;verticalAlign=middle;whiteSpace=wrap;rounded=0;fontColor=#ffffff;" parent="1" vertex="1">
          <mxGeometry x="-90" y="290" width="90" height="20" as="geometry" />
        </mxCell>
        <mxCell id="92" value="" style="ellipse;whiteSpace=wrap;html=1;aspect=fixed;fontSize=12;fillColor=#76608a;strokeColor=#432D57;align=center;verticalAlign=middle;fontFamily=Helvetica;fontColor=#ffffff;" parent="1" vertex="1">
          <mxGeometry x="720" y="200" width="20" height="20" as="geometry" />
        </mxCell>
        <mxCell id="116" style="edgeStyle=orthogonalEdgeStyle;rounded=1;orthogonalLoop=1;jettySize=auto;html=1;dashed=1;endArrow=none;endFill=0;fontSize=12;fontColor=#FFB570;fillColor=#1ba1e2;strokeColor=#1BA1E2;strokeWidth=2;align=center;verticalAlign=middle;fontFamily=Helvetica;labelBackgroundColor=default;" parent="1" source="63" target="65" edge="1">
          <mxGeometry relative="1" as="geometry">
            <mxPoint x="119.97" y="320" as="sourcePoint" />
            <mxPoint x="169.97" y="320" as="targetPoint" />
          </mxGeometry>
        </mxCell>
        <mxCell id="C2meHH0dxPaNBHatuUxs-185" style="edgeStyle=orthogonalEdgeStyle;rounded=1;orthogonalLoop=1;jettySize=auto;html=1;dashed=1;strokeColor=#1BA1E2;align=center;verticalAlign=middle;fontFamily=Helvetica;fontSize=12;fontColor=#FFB570;labelBackgroundColor=default;endArrow=none;endFill=0;fillColor=#1ba1e2;strokeWidth=2;" parent="1" source="C2meHH0dxPaNBHatuUxs-182" target="C2meHH0dxPaNBHatuUxs-183" edge="1">
          <mxGeometry relative="1" as="geometry" />
        </mxCell>
        <mxCell id="C2meHH0dxPaNBHatuUxs-182" value="" style="ellipse;whiteSpace=wrap;html=1;aspect=fixed;fontSize=12;fillColor=#1ba1e2;strokeColor=#006EAF;rounded=0;align=center;verticalAlign=middle;fontFamily=Helvetica;fontColor=#ffffff;gradientColor=none;" parent="1" vertex="1">
          <mxGeometry x="320" y="290" width="20" height="20" as="geometry" />
        </mxCell>
        <mxCell id="C2meHH0dxPaNBHatuUxs-183" value="" style="ellipse;whiteSpace=wrap;html=1;aspect=fixed;fontSize=12;fillColor=#1ba1e2;strokeColor=#006EAF;rounded=0;align=center;verticalAlign=middle;fontFamily=Helvetica;fontColor=#ffffff;gradientColor=none;" parent="1" vertex="1">
          <mxGeometry x="385" y="290" width="20" height="20" as="geometry" />
        </mxCell>
        <mxCell id="C2meHH0dxPaNBHatuUxs-192" value="" style="ellipse;whiteSpace=wrap;html=1;aspect=fixed;fillColor=#76608a;strokeColor=#432D57;align=center;verticalAlign=middle;fontFamily=Helvetica;fontSize=12;fontColor=#ffffff;" parent="1" vertex="1">
          <mxGeometry x="159.97" y="200" width="20" height="20" as="geometry" />
        </mxCell>
        <mxCell id="C2meHH0dxPaNBHatuUxs-207" style="edgeStyle=orthogonalEdgeStyle;rounded=1;orthogonalLoop=1;jettySize=auto;html=1;exitX=1;exitY=0.5;exitDx=0;exitDy=0;entryX=0;entryY=0.5;entryDx=0;entryDy=0;dashed=1;strokeColor=light-dark(#647687,#7D8C9B);align=center;verticalAlign=middle;fontFamily=Helvetica;fontSize=10;fontColor=#FFB570;labelBackgroundColor=default;endArrow=none;endFill=0;fillColor=#ffe6cc;strokeWidth=2;" parent="1" source="C2meHH0dxPaNBHatuUxs-208" target="92" edge="1">
          <mxGeometry relative="1" as="geometry">
            <Array as="points">
              <mxPoint x="700" y="130" />
              <mxPoint x="700" y="210" />
            </Array>
          </mxGeometry>
        </mxCell>
        <mxCell id="C2meHH0dxPaNBHatuUxs-208" value="" style="ellipse;whiteSpace=wrap;html=1;aspect=fixed;fillColor=#647687;strokeColor=#314354;rounded=0;align=center;verticalAlign=middle;fontFamily=Helvetica;fontSize=12;fontColor=#ffffff;gradientColor=none;" parent="1" vertex="1">
          <mxGeometry x="650" y="120" width="20" height="20" as="geometry" />
        </mxCell>
        <mxCell id="C2meHH0dxPaNBHatuUxs-212" value="/feature 3" style="text;html=1;strokeColor=#006EAF;fillColor=#1ba1e2;align=center;verticalAlign=middle;whiteSpace=wrap;rounded=0;fontColor=#ffffff;" parent="1" vertex="1">
          <mxGeometry x="-90" y="330" width="90" height="20" as="geometry" />
        </mxCell>
        <mxCell id="C2meHH0dxPaNBHatuUxs-213" style="edgeStyle=orthogonalEdgeStyle;rounded=1;orthogonalLoop=1;jettySize=auto;html=1;entryX=0;entryY=0.5;entryDx=0;entryDy=0;dashed=1;strokeColor=#1BA1E2;align=center;verticalAlign=middle;fontFamily=Helvetica;fontSize=12;fontColor=#FFB570;labelBackgroundColor=default;endArrow=none;endFill=0;fillColor=#1ba1e2;strokeWidth=2;" parent="1" source="C2meHH0dxPaNBHatuUxs-214" target="C2meHH0dxPaNBHatuUxs-216" edge="1">
          <mxGeometry relative="1" as="geometry" />
        </mxCell>
        <mxCell id="C2meHH0dxPaNBHatuUxs-214" value="" style="ellipse;whiteSpace=wrap;html=1;aspect=fixed;fontSize=12;fillColor=#1ba1e2;strokeColor=#006EAF;rounded=0;align=center;verticalAlign=middle;fontFamily=Helvetica;fontColor=#ffffff;gradientColor=none;" parent="1" vertex="1">
          <mxGeometry x="630" y="330" width="20" height="20" as="geometry" />
        </mxCell>
        <mxCell id="C2meHH0dxPaNBHatuUxs-216" value="" style="ellipse;whiteSpace=wrap;html=1;aspect=fixed;fontSize=12;fillColor=#1ba1e2;strokeColor=#006EAF;rounded=0;align=center;verticalAlign=middle;fontFamily=Helvetica;fontColor=#ffffff;gradientColor=none;" parent="1" vertex="1">
          <mxGeometry x="690" y="330" width="20" height="20" as="geometry" />
        </mxCell>
        <mxCell id="C2meHH0dxPaNBHatuUxs-221" value="" style="edgeStyle=orthogonalEdgeStyle;rounded=1;orthogonalLoop=1;jettySize=auto;html=1;dashed=1;endArrow=none;endFill=0;fillColor=#76608a;strokeColor=light-dark(#76608A,#A18EB3);strokeWidth=2;align=center;verticalAlign=middle;fontFamily=Helvetica;fontSize=11;fontColor=default;labelBackgroundColor=default;" parent="1" source="29" target="C2meHH0dxPaNBHatuUxs-220" edge="1">
          <mxGeometry relative="1" as="geometry">
            <mxPoint x="720" y="210" as="targetPoint" />
            <mxPoint x="480" y="210" as="sourcePoint" />
          </mxGeometry>
        </mxCell>
        <mxCell id="C2meHH0dxPaNBHatuUxs-222" value="" style="edgeStyle=orthogonalEdgeStyle;rounded=1;orthogonalLoop=1;jettySize=auto;html=1;entryX=0;entryY=0.5;entryDx=0;entryDy=0;dashed=1;strokeColor=#1BA1E2;align=center;verticalAlign=middle;fontFamily=Helvetica;fontSize=12;fontColor=#FFB570;labelBackgroundColor=default;endArrow=none;endFill=0;fillColor=#1ba1e2;strokeWidth=2;" parent="1" source="C2meHH0dxPaNBHatuUxs-220" target="C2meHH0dxPaNBHatuUxs-214" edge="1">
          <mxGeometry relative="1" as="geometry">
            <Array as="points">
              <mxPoint x="560" y="210" />
              <mxPoint x="560" y="340" />
            </Array>
          </mxGeometry>
        </mxCell>
        <mxCell id="C2meHH0dxPaNBHatuUxs-220" value="" style="ellipse;whiteSpace=wrap;html=1;aspect=fixed;fillColor=#76608a;strokeColor=#432D57;align=center;verticalAlign=middle;fontFamily=Helvetica;fontSize=12;fontColor=#ffffff;" parent="1" vertex="1">
          <mxGeometry x="520" y="200" width="20" height="20" as="geometry" />
        </mxCell>
        <mxCell id="C2meHH0dxPaNBHatuUxs-225" value="" style="edgeStyle=orthogonalEdgeStyle;rounded=1;orthogonalLoop=1;jettySize=auto;html=1;dashed=1;endArrow=none;endFill=0;fillColor=#76608a;strokeColor=light-dark(#76608A,#A18EB3);exitX=1;exitY=0.5;exitDx=0;exitDy=0;strokeWidth=2;align=center;verticalAlign=middle;fontFamily=Helvetica;fontSize=11;fontColor=default;labelBackgroundColor=default;" parent="1" source="92" target="C2meHH0dxPaNBHatuUxs-224" edge="1">
          <mxGeometry relative="1" as="geometry">
            <mxPoint x="810" y="210" as="targetPoint" />
            <mxPoint x="740" y="210" as="sourcePoint" />
          </mxGeometry>
        </mxCell>
        <mxCell id="C2meHH0dxPaNBHatuUxs-288" style="edgeStyle=orthogonalEdgeStyle;rounded=1;orthogonalLoop=1;jettySize=auto;html=1;exitX=1;exitY=0.5;exitDx=0;exitDy=0;dashed=1;strokeColor=light-dark(#76608A,#A18EB3);align=center;verticalAlign=middle;fontFamily=Helvetica;fontSize=11;fontColor=default;labelBackgroundColor=default;endArrow=none;endFill=0;fillColor=#76608a;strokeWidth=2;" parent="1" source="C2meHH0dxPaNBHatuUxs-224" edge="1">
          <mxGeometry relative="1" as="geometry">
            <mxPoint x="870" y="210" as="targetPoint" />
          </mxGeometry>
        </mxCell>
        <mxCell id="C2meHH0dxPaNBHatuUxs-224" value="" style="ellipse;whiteSpace=wrap;html=1;aspect=fixed;fontSize=12;fillColor=#76608a;strokeColor=#432D57;align=center;verticalAlign=middle;fontFamily=Helvetica;fontColor=#ffffff;" parent="1" vertex="1">
          <mxGeometry x="770" y="200" width="20" height="20" as="geometry" />
        </mxCell>
        <mxCell id="C2meHH0dxPaNBHatuUxs-230" style="edgeStyle=orthogonalEdgeStyle;rounded=1;orthogonalLoop=1;jettySize=auto;html=1;dashed=1;endArrow=none;endFill=0;fillColor=#76608a;strokeColor=light-dark(#76608A,#A18EB3);strokeWidth=2;align=center;verticalAlign=middle;fontFamily=Helvetica;fontSize=11;fontColor=default;labelBackgroundColor=default;" parent="1" source="C2meHH0dxPaNBHatuUxs-314" target="C2meHH0dxPaNBHatuUxs-233" edge="1">
          <mxGeometry relative="1" as="geometry">
            <mxPoint x="-250" y="570" as="targetPoint" />
            <mxPoint x="880" y="540" as="sourcePoint" />
          </mxGeometry>
        </mxCell>
        <mxCell id="C2meHH0dxPaNBHatuUxs-233" value="develop" style="text;html=1;strokeColor=#432D57;fillColor=#76608a;align=center;verticalAlign=middle;whiteSpace=wrap;rounded=0;fontColor=#ffffff;" parent="1" vertex="1">
          <mxGeometry x="-90" y="530" width="90" height="20" as="geometry" />
        </mxCell>
        <mxCell id="C2meHH0dxPaNBHatuUxs-242" value="main" style="text;html=1;strokeColor=#314354;fillColor=#647687;align=center;verticalAlign=middle;whiteSpace=wrap;rounded=0;fontSize=12;fontColor=#ffffff;" parent="1" vertex="1">
          <mxGeometry x="-90" y="450" width="90" height="20" as="geometry" />
        </mxCell>
        <mxCell id="C2meHH0dxPaNBHatuUxs-256" style="edgeStyle=orthogonalEdgeStyle;rounded=1;orthogonalLoop=1;jettySize=auto;html=1;dashed=1;strokeColor=light-dark(#647687,#7D8C9B);align=center;verticalAlign=middle;fontFamily=Helvetica;fontSize=10;fontColor=#FFB570;labelBackgroundColor=default;endArrow=none;endFill=0;fillColor=#ffe6cc;strokeWidth=2;" parent="1" source="C2meHH0dxPaNBHatuUxs-315" target="C2meHH0dxPaNBHatuUxs-242" edge="1">
          <mxGeometry relative="1" as="geometry">
            <mxPoint x="880" y="460" as="sourcePoint" />
          </mxGeometry>
        </mxCell>
        <mxCell id="C2meHH0dxPaNBHatuUxs-292" value="" style="edgeStyle=orthogonalEdgeStyle;rounded=1;orthogonalLoop=1;jettySize=auto;html=1;exitX=1;exitY=0.5;exitDx=0;exitDy=0;entryX=0;entryY=0.5;entryDx=0;entryDy=0;dashed=1;strokeColor=light-dark(#76608A,#A18EB3);align=center;verticalAlign=middle;fontFamily=Helvetica;fontSize=11;fontColor=default;labelBackgroundColor=default;endArrow=none;endFill=0;fillColor=#76608a;strokeWidth=2;" parent="1" source="24" target="C2meHH0dxPaNBHatuUxs-291" edge="1">
          <mxGeometry relative="1" as="geometry">
            <mxPoint y="210" as="sourcePoint" />
            <mxPoint x="140" y="210" as="targetPoint" />
          </mxGeometry>
        </mxCell>
        <mxCell id="C2meHH0dxPaNBHatuUxs-293" style="edgeStyle=orthogonalEdgeStyle;rounded=1;orthogonalLoop=1;jettySize=auto;html=1;exitX=1;exitY=0.5;exitDx=0;exitDy=0;entryX=0;entryY=0.5;entryDx=0;entryDy=0;dashed=1;strokeColor=#1BA1E2;align=center;verticalAlign=middle;fontFamily=Helvetica;fontSize=12;fontColor=#FFB570;labelBackgroundColor=default;endArrow=none;endFill=0;fillColor=#1ba1e2;strokeWidth=2;" parent="1" source="C2meHH0dxPaNBHatuUxs-291" target="63" edge="1">
          <mxGeometry relative="1" as="geometry" />
        </mxCell>
        <mxCell id="C2meHH0dxPaNBHatuUxs-291" value="" style="ellipse;whiteSpace=wrap;html=1;aspect=fixed;fillColor=#76608a;strokeColor=#432D57;fontColor=#ffffff;" parent="1" vertex="1">
          <mxGeometry x="30" y="200" width="20" height="20" as="geometry" />
        </mxCell>
        <mxCell id="C2meHH0dxPaNBHatuUxs-294" value="Main Repo" style="text;html=1;align=left;verticalAlign=middle;whiteSpace=wrap;rounded=0;fontSize=20;fontStyle=1" parent="1" vertex="1">
          <mxGeometry x="-90" y="60" width="120" height="30" as="geometry" />
        </mxCell>
        <mxCell id="C2meHH0dxPaNBHatuUxs-295" value="In-House Package 1" style="text;html=1;align=left;verticalAlign=middle;whiteSpace=wrap;rounded=0;fontSize=20;fontStyle=1" parent="1" vertex="1">
          <mxGeometry x="-90" y="400" width="210" height="30" as="geometry" />
        </mxCell>
        <mxCell id="C2meHH0dxPaNBHatuUxs-304" value="In-House Package 2" style="text;html=1;align=left;verticalAlign=middle;whiteSpace=wrap;rounded=0;fontSize=20;fontStyle=1" parent="1" vertex="1">
          <mxGeometry x="-90" y="590" width="200" height="30" as="geometry" />
        </mxCell>
        <mxCell id="C2meHH0dxPaNBHatuUxs-314" value="" style="ellipse;whiteSpace=wrap;html=1;aspect=fixed;fillColor=#76608a;strokeColor=#432D57;rounded=0;align=center;verticalAlign=middle;fontFamily=Helvetica;fontSize=12;fontColor=#ffffff;gradientColor=none;" parent="1" vertex="1">
          <mxGeometry x="640" y="530" width="20" height="20" as="geometry" />
        </mxCell>
        <mxCell id="C2meHH0dxPaNBHatuUxs-315" value="" style="ellipse;whiteSpace=wrap;html=1;aspect=fixed;fillColor=#647687;strokeColor=#314354;rounded=0;align=center;verticalAlign=middle;fontFamily=Helvetica;fontSize=12;fontColor=#ffffff;gradientColor=none;" parent="1" vertex="1">
          <mxGeometry x="640" y="450" width="20" height="20" as="geometry" />
        </mxCell>
        <mxCell id="C2meHH0dxPaNBHatuUxs-317" style="edgeStyle=orthogonalEdgeStyle;rounded=1;orthogonalLoop=1;jettySize=auto;html=1;dashed=1;strokeColor=light-dark(#647687,#7D8C9B);align=center;verticalAlign=middle;fontFamily=Helvetica;fontSize=10;fontColor=#FFB570;labelBackgroundColor=default;endArrow=none;endFill=0;fillColor=#ffe6cc;entryX=1;entryY=0.5;entryDx=0;entryDy=0;strokeWidth=2;" parent="1" target="C2meHH0dxPaNBHatuUxs-315" edge="1">
          <mxGeometry relative="1" as="geometry">
            <mxPoint x="1550" y="460" as="sourcePoint" />
            <mxPoint x="10" y="470" as="targetPoint" />
          </mxGeometry>
        </mxCell>
        <mxCell id="C2meHH0dxPaNBHatuUxs-318" style="edgeStyle=orthogonalEdgeStyle;rounded=1;orthogonalLoop=1;jettySize=auto;html=1;dashed=1;endArrow=none;endFill=0;fillColor=#76608a;strokeColor=light-dark(#76608A,#A18EB3);strokeWidth=2;align=center;verticalAlign=middle;fontFamily=Helvetica;fontSize=11;fontColor=default;labelBackgroundColor=default;" parent="1" edge="1">
          <mxGeometry relative="1" as="geometry">
            <mxPoint x="660" y="541" as="targetPoint" />
            <mxPoint x="1550" y="540" as="sourcePoint" />
          </mxGeometry>
        </mxCell>
        <mxCell id="C2meHH0dxPaNBHatuUxs-321" value="" style="edgeStyle=orthogonalEdgeStyle;rounded=1;orthogonalLoop=1;jettySize=auto;html=1;entryX=0;entryY=0.5;entryDx=0;entryDy=0;dashed=1;strokeColor=light-dark(#647687,#7D8C9B);align=center;verticalAlign=middle;fontFamily=Helvetica;fontSize=10;fontColor=#FFB570;labelBackgroundColor=default;endArrow=none;endFill=0;fillColor=#ffe6cc;strokeWidth=2;" parent="1" edge="1">
          <mxGeometry relative="1" as="geometry">
            <mxPoint x="660" y="460" as="sourcePoint" />
            <mxPoint x="720" y="500" as="targetPoint" />
            <Array as="points">
              <mxPoint x="660" y="461" />
              <mxPoint x="680" y="461" />
              <mxPoint x="680" y="500" />
            </Array>
          </mxGeometry>
        </mxCell>
        <mxCell id="C2meHH0dxPaNBHatuUxs-322" value="" style="edgeStyle=orthogonalEdgeStyle;rounded=1;orthogonalLoop=1;jettySize=auto;html=1;entryX=0;entryY=0.5;entryDx=0;entryDy=0;dashed=1;strokeColor=light-dark(#76608A,#A18EB3);align=center;verticalAlign=middle;fontFamily=Helvetica;fontSize=11;fontColor=default;labelBackgroundColor=default;endArrow=none;endFill=0;fillColor=#76608a;strokeWidth=2;" parent="1" edge="1">
          <mxGeometry relative="1" as="geometry">
            <mxPoint x="660" y="539.97" as="sourcePoint" />
            <mxPoint x="720" y="579.97" as="targetPoint" />
            <Array as="points">
              <mxPoint x="660" y="540.97" />
              <mxPoint x="680" y="540.97" />
              <mxPoint x="680" y="579.97" />
            </Array>
          </mxGeometry>
        </mxCell>
        <mxCell id="C2meHH0dxPaNBHatuUxs-335" style="edgeStyle=orthogonalEdgeStyle;rounded=1;orthogonalLoop=1;jettySize=auto;html=1;exitX=1;exitY=0.5;exitDx=0;exitDy=0;dashed=1;strokeColor=light-dark(#647687,#7D8C9B);align=center;verticalAlign=middle;fontFamily=Helvetica;fontSize=10;fontColor=#FFB570;labelBackgroundColor=default;endArrow=none;endFill=0;fillColor=#ffe6cc;strokeWidth=2;" parent="1" source="C2meHH0dxPaNBHatuUxs-323" target="C2meHH0dxPaNBHatuUxs-330" edge="1">
          <mxGeometry relative="1" as="geometry" />
        </mxCell>
        <mxCell id="C2meHH0dxPaNBHatuUxs-323" value="" style="ellipse;whiteSpace=wrap;html=1;aspect=fixed;fontSize=12;fillColor=#647687;strokeColor=#314354;rounded=0;align=center;verticalAlign=middle;fontFamily=Helvetica;fontColor=#ffffff;gradientColor=none;" parent="1" vertex="1">
          <mxGeometry x="720" y="490" width="20" height="20" as="geometry" />
        </mxCell>
        <mxCell id="C2meHH0dxPaNBHatuUxs-336" style="edgeStyle=orthogonalEdgeStyle;rounded=1;orthogonalLoop=1;jettySize=auto;html=1;exitX=1;exitY=0.5;exitDx=0;exitDy=0;entryX=0;entryY=0.5;entryDx=0;entryDy=0;dashed=1;strokeColor=light-dark(#76608A,#A18EB3);align=center;verticalAlign=middle;fontFamily=Helvetica;fontSize=11;fontColor=default;labelBackgroundColor=default;endArrow=none;endFill=0;fillColor=#76608a;strokeWidth=2;" parent="1" source="C2meHH0dxPaNBHatuUxs-324" target="C2meHH0dxPaNBHatuUxs-333" edge="1">
          <mxGeometry relative="1" as="geometry" />
        </mxCell>
        <mxCell id="C2meHH0dxPaNBHatuUxs-324" value="" style="ellipse;whiteSpace=wrap;html=1;aspect=fixed;fontSize=12;fillColor=#76608a;strokeColor=#432D57;align=center;verticalAlign=middle;fontFamily=Helvetica;fontColor=#ffffff;rounded=0;gradientColor=none;" parent="1" vertex="1">
          <mxGeometry x="720" y="570" width="20" height="20" as="geometry" />
        </mxCell>
        <mxCell id="C2meHH0dxPaNBHatuUxs-329" style="edgeStyle=orthogonalEdgeStyle;rounded=1;orthogonalLoop=1;jettySize=auto;html=1;exitX=1;exitY=0.5;exitDx=0;exitDy=0;dashed=1;strokeColor=light-dark(#647687,#7D8C9B);align=center;verticalAlign=middle;fontFamily=Helvetica;fontSize=10;fontColor=#FFB570;labelBackgroundColor=default;endArrow=none;endFill=0;fillColor=#ffe6cc;strokeWidth=2;" parent="1" source="C2meHH0dxPaNBHatuUxs-330" target="C2meHH0dxPaNBHatuUxs-331" edge="1">
          <mxGeometry relative="1" as="geometry" />
        </mxCell>
        <mxCell id="C2meHH0dxPaNBHatuUxs-330" value="" style="ellipse;whiteSpace=wrap;html=1;aspect=fixed;fontSize=12;fillColor=#647687;strokeColor=#314354;rounded=0;align=center;verticalAlign=middle;fontFamily=Helvetica;fontColor=#ffffff;gradientColor=none;" parent="1" vertex="1">
          <mxGeometry x="780" y="490" width="20" height="20" as="geometry" />
        </mxCell>
        <mxCell id="Bp6myUyQwJXxxmk4WZvx-269" style="edgeStyle=orthogonalEdgeStyle;rounded=1;orthogonalLoop=1;jettySize=auto;html=1;exitX=1;exitY=0.5;exitDx=0;exitDy=0;entryX=0;entryY=0.5;entryDx=0;entryDy=0;dashed=1;strokeColor=light-dark(#647687,#7D8C9B);align=center;verticalAlign=middle;fontFamily=Helvetica;fontSize=10;fontColor=#FFB570;labelBackgroundColor=default;endArrow=none;endFill=0;fillColor=#ffe6cc;strokeWidth=2;" parent="1" source="D5p6vvqvgfSBNJeM-XyV-116" target="Bp6myUyQwJXxxmk4WZvx-234" edge="1">
          <mxGeometry relative="1" as="geometry">
            <Array as="points">
              <mxPoint x="1160" y="500" />
              <mxPoint x="1160" y="170" />
            </Array>
          </mxGeometry>
        </mxCell>
        <mxCell id="C2meHH0dxPaNBHatuUxs-331" value="" style="ellipse;whiteSpace=wrap;html=1;aspect=fixed;fontSize=12;fillColor=#647687;strokeColor=#314354;rounded=0;align=center;verticalAlign=middle;fontFamily=Helvetica;fontColor=#ffffff;gradientColor=none;" parent="1" vertex="1">
          <mxGeometry x="840" y="490" width="20" height="20" as="geometry" />
        </mxCell>
        <mxCell id="C2meHH0dxPaNBHatuUxs-332" style="edgeStyle=orthogonalEdgeStyle;rounded=1;orthogonalLoop=1;jettySize=auto;html=1;exitX=1;exitY=0.5;exitDx=0;exitDy=0;dashed=1;strokeColor=light-dark(#76608A,#A18EB3);align=center;verticalAlign=middle;fontFamily=Helvetica;fontSize=11;fontColor=default;labelBackgroundColor=default;endArrow=none;endFill=0;fillColor=#76608a;strokeWidth=2;" parent="1" source="C2meHH0dxPaNBHatuUxs-333" target="C2meHH0dxPaNBHatuUxs-334" edge="1">
          <mxGeometry relative="1" as="geometry" />
        </mxCell>
        <mxCell id="C2meHH0dxPaNBHatuUxs-333" value="" style="ellipse;whiteSpace=wrap;html=1;aspect=fixed;fontSize=12;fillColor=#76608a;strokeColor=#432D57;align=center;verticalAlign=middle;fontFamily=Helvetica;fontColor=#ffffff;rounded=0;gradientColor=none;" parent="1" vertex="1">
          <mxGeometry x="780" y="570" width="20" height="20" as="geometry" />
        </mxCell>
        <mxCell id="Bp6myUyQwJXxxmk4WZvx-272" style="edgeStyle=orthogonalEdgeStyle;rounded=1;orthogonalLoop=1;jettySize=auto;html=1;exitX=1;exitY=0.5;exitDx=0;exitDy=0;entryX=0;entryY=0.5;entryDx=0;entryDy=0;dashed=1;strokeColor=light-dark(#76608A,#A18EB3);align=center;verticalAlign=middle;fontFamily=Helvetica;fontSize=11;fontColor=default;labelBackgroundColor=default;endArrow=none;endFill=0;fillColor=#76608a;strokeWidth=2;" parent="1" source="D5p6vvqvgfSBNJeM-XyV-124" target="Bp6myUyQwJXxxmk4WZvx-259" edge="1">
          <mxGeometry relative="1" as="geometry">
            <Array as="points">
              <mxPoint x="1320" y="580" />
              <mxPoint x="1320" y="250" />
            </Array>
          </mxGeometry>
        </mxCell>
        <mxCell id="C2meHH0dxPaNBHatuUxs-334" value="" style="ellipse;whiteSpace=wrap;html=1;aspect=fixed;fontSize=12;fillColor=#76608a;strokeColor=#432D57;align=center;verticalAlign=middle;fontFamily=Helvetica;fontColor=#ffffff;rounded=0;gradientColor=none;" parent="1" vertex="1">
          <mxGeometry x="840" y="570" width="20" height="20" as="geometry" />
        </mxCell>
        <mxCell id="Bp6myUyQwJXxxmk4WZvx-145" style="edgeStyle=orthogonalEdgeStyle;rounded=1;orthogonalLoop=1;jettySize=auto;html=1;dashed=1;endArrow=none;endFill=0;fillColor=#76608a;strokeColor=light-dark(#76608A,#A18EB3);strokeWidth=2;align=center;verticalAlign=middle;fontFamily=Helvetica;fontSize=11;fontColor=default;labelBackgroundColor=default;" parent="1" source="Bp6myUyQwJXxxmk4WZvx-150" target="Bp6myUyQwJXxxmk4WZvx-146" edge="1">
          <mxGeometry relative="1" as="geometry">
            <mxPoint x="-250" y="760" as="targetPoint" />
            <mxPoint x="880" y="730" as="sourcePoint" />
          </mxGeometry>
        </mxCell>
        <mxCell id="Bp6myUyQwJXxxmk4WZvx-146" value="develop" style="text;html=1;strokeColor=#432D57;fillColor=#76608a;align=center;verticalAlign=middle;whiteSpace=wrap;rounded=0;fontColor=#ffffff;" parent="1" vertex="1">
          <mxGeometry x="-90" y="720" width="90" height="20" as="geometry" />
        </mxCell>
        <mxCell id="Bp6myUyQwJXxxmk4WZvx-147" value="main" style="text;html=1;strokeColor=#314354;fillColor=#647687;align=center;verticalAlign=middle;whiteSpace=wrap;rounded=0;fontSize=12;fontColor=#ffffff;" parent="1" vertex="1">
          <mxGeometry x="-90" y="640" width="90" height="20" as="geometry" />
        </mxCell>
        <mxCell id="Bp6myUyQwJXxxmk4WZvx-148" style="edgeStyle=orthogonalEdgeStyle;rounded=1;orthogonalLoop=1;jettySize=auto;html=1;dashed=1;strokeColor=light-dark(#647687,#7D8C9B);align=center;verticalAlign=middle;fontFamily=Helvetica;fontSize=10;fontColor=#FFB570;labelBackgroundColor=default;endArrow=none;endFill=0;fillColor=#ffe6cc;strokeWidth=2;" parent="1" source="Bp6myUyQwJXxxmk4WZvx-151" target="Bp6myUyQwJXxxmk4WZvx-147" edge="1">
          <mxGeometry relative="1" as="geometry">
            <mxPoint x="880" y="650" as="sourcePoint" />
          </mxGeometry>
        </mxCell>
        <mxCell id="Bp6myUyQwJXxxmk4WZvx-150" value="" style="ellipse;whiteSpace=wrap;html=1;aspect=fixed;fillColor=#76608a;strokeColor=#432D57;rounded=0;align=center;verticalAlign=middle;fontFamily=Helvetica;fontSize=12;fontColor=#ffffff;gradientColor=none;" parent="1" vertex="1">
          <mxGeometry x="640" y="720" width="20" height="20" as="geometry" />
        </mxCell>
        <mxCell id="Bp6myUyQwJXxxmk4WZvx-151" value="" style="ellipse;whiteSpace=wrap;html=1;aspect=fixed;fillColor=#647687;strokeColor=#314354;rounded=0;align=center;verticalAlign=middle;fontFamily=Helvetica;fontSize=12;fontColor=#ffffff;gradientColor=none;" parent="1" vertex="1">
          <mxGeometry x="640" y="640" width="20" height="20" as="geometry" />
        </mxCell>
        <mxCell id="Bp6myUyQwJXxxmk4WZvx-153" style="edgeStyle=orthogonalEdgeStyle;rounded=1;orthogonalLoop=1;jettySize=auto;html=1;dashed=1;strokeColor=light-dark(#647687,#7D8C9B);align=center;verticalAlign=middle;fontFamily=Helvetica;fontSize=10;fontColor=#FFB570;labelBackgroundColor=default;endArrow=none;endFill=0;fillColor=#ffe6cc;entryX=1;entryY=0.5;entryDx=0;entryDy=0;strokeWidth=2;" parent="1" target="Bp6myUyQwJXxxmk4WZvx-151" edge="1">
          <mxGeometry relative="1" as="geometry">
            <mxPoint x="1550" y="650" as="sourcePoint" />
            <mxPoint x="10" y="660" as="targetPoint" />
          </mxGeometry>
        </mxCell>
        <mxCell id="Bp6myUyQwJXxxmk4WZvx-154" style="edgeStyle=orthogonalEdgeStyle;rounded=1;orthogonalLoop=1;jettySize=auto;html=1;dashed=1;endArrow=none;endFill=0;fillColor=#76608a;strokeColor=light-dark(#76608A,#A18EB3);strokeWidth=2;align=center;verticalAlign=middle;fontFamily=Helvetica;fontSize=11;fontColor=default;labelBackgroundColor=default;" parent="1" edge="1">
          <mxGeometry relative="1" as="geometry">
            <mxPoint x="660" y="731" as="targetPoint" />
            <mxPoint x="1550" y="731" as="sourcePoint" />
          </mxGeometry>
        </mxCell>
        <mxCell id="Bp6myUyQwJXxxmk4WZvx-158" value="" style="edgeStyle=orthogonalEdgeStyle;rounded=1;orthogonalLoop=1;jettySize=auto;html=1;entryX=0;entryY=0.5;entryDx=0;entryDy=0;dashed=1;strokeColor=light-dark(#647687,#7D8C9B);align=center;verticalAlign=middle;fontFamily=Helvetica;fontSize=10;fontColor=#FFB570;labelBackgroundColor=default;endArrow=none;endFill=0;fillColor=#ffe6cc;strokeWidth=2;" parent="1" edge="1">
          <mxGeometry relative="1" as="geometry">
            <mxPoint x="660" y="650" as="sourcePoint" />
            <mxPoint x="720" y="690" as="targetPoint" />
            <Array as="points">
              <mxPoint x="660" y="651" />
              <mxPoint x="680" y="651" />
              <mxPoint x="680" y="690" />
            </Array>
          </mxGeometry>
        </mxCell>
        <mxCell id="Bp6myUyQwJXxxmk4WZvx-159" value="" style="edgeStyle=orthogonalEdgeStyle;rounded=1;orthogonalLoop=1;jettySize=auto;html=1;entryX=0;entryY=0.5;entryDx=0;entryDy=0;dashed=1;strokeColor=light-dark(#76608A,#A18EB3);align=center;verticalAlign=middle;fontFamily=Helvetica;fontSize=11;fontColor=default;labelBackgroundColor=default;endArrow=none;endFill=0;fillColor=#76608a;strokeWidth=2;" parent="1" edge="1">
          <mxGeometry relative="1" as="geometry">
            <mxPoint x="660" y="729.97" as="sourcePoint" />
            <mxPoint x="720" y="769.97" as="targetPoint" />
            <Array as="points">
              <mxPoint x="660" y="730.97" />
              <mxPoint x="680" y="730.97" />
              <mxPoint x="680" y="769.97" />
            </Array>
          </mxGeometry>
        </mxCell>
        <mxCell id="Bp6myUyQwJXxxmk4WZvx-160" style="edgeStyle=orthogonalEdgeStyle;rounded=1;orthogonalLoop=1;jettySize=auto;html=1;exitX=1;exitY=0.5;exitDx=0;exitDy=0;dashed=1;strokeColor=light-dark(#647687,#7D8C9B);align=center;verticalAlign=middle;fontFamily=Helvetica;fontSize=10;fontColor=#FFB570;labelBackgroundColor=default;endArrow=none;endFill=0;fillColor=#ffe6cc;strokeWidth=2;" parent="1" source="Bp6myUyQwJXxxmk4WZvx-161" target="Bp6myUyQwJXxxmk4WZvx-168" edge="1">
          <mxGeometry relative="1" as="geometry" />
        </mxCell>
        <mxCell id="Bp6myUyQwJXxxmk4WZvx-161" value="" style="ellipse;whiteSpace=wrap;html=1;aspect=fixed;fontSize=12;fillColor=#647687;strokeColor=#314354;rounded=0;align=center;verticalAlign=middle;fontFamily=Helvetica;fontColor=#ffffff;gradientColor=none;" parent="1" vertex="1">
          <mxGeometry x="720" y="680" width="20" height="20" as="geometry" />
        </mxCell>
        <mxCell id="Bp6myUyQwJXxxmk4WZvx-162" style="edgeStyle=orthogonalEdgeStyle;rounded=1;orthogonalLoop=1;jettySize=auto;html=1;exitX=1;exitY=0.5;exitDx=0;exitDy=0;entryX=0;entryY=0.5;entryDx=0;entryDy=0;dashed=1;strokeColor=light-dark(#76608A,#A18EB3);align=center;verticalAlign=middle;fontFamily=Helvetica;fontSize=11;fontColor=default;labelBackgroundColor=default;endArrow=none;endFill=0;fillColor=#76608a;strokeWidth=2;" parent="1" source="Bp6myUyQwJXxxmk4WZvx-163" target="Bp6myUyQwJXxxmk4WZvx-171" edge="1">
          <mxGeometry relative="1" as="geometry" />
        </mxCell>
        <mxCell id="Bp6myUyQwJXxxmk4WZvx-163" value="" style="ellipse;whiteSpace=wrap;html=1;aspect=fixed;fontSize=12;fillColor=#76608a;strokeColor=#432D57;align=center;verticalAlign=middle;fontFamily=Helvetica;fontColor=#ffffff;rounded=0;gradientColor=none;" parent="1" vertex="1">
          <mxGeometry x="720" y="760" width="20" height="20" as="geometry" />
        </mxCell>
        <mxCell id="Bp6myUyQwJXxxmk4WZvx-167" style="edgeStyle=orthogonalEdgeStyle;rounded=1;orthogonalLoop=1;jettySize=auto;html=1;exitX=1;exitY=0.5;exitDx=0;exitDy=0;dashed=1;strokeColor=light-dark(#647687,#7D8C9B);align=center;verticalAlign=middle;fontFamily=Helvetica;fontSize=10;fontColor=#FFB570;labelBackgroundColor=default;endArrow=none;endFill=0;fillColor=#ffe6cc;strokeWidth=2;" parent="1" source="Bp6myUyQwJXxxmk4WZvx-168" target="Bp6myUyQwJXxxmk4WZvx-169" edge="1">
          <mxGeometry relative="1" as="geometry" />
        </mxCell>
        <mxCell id="Bp6myUyQwJXxxmk4WZvx-168" value="" style="ellipse;whiteSpace=wrap;html=1;aspect=fixed;fontSize=12;fillColor=#647687;strokeColor=#314354;rounded=0;align=center;verticalAlign=middle;fontFamily=Helvetica;fontColor=#ffffff;gradientColor=none;" parent="1" vertex="1">
          <mxGeometry x="780" y="680" width="20" height="20" as="geometry" />
        </mxCell>
        <mxCell id="Bp6myUyQwJXxxmk4WZvx-169" value="" style="ellipse;whiteSpace=wrap;html=1;aspect=fixed;fontSize=12;fillColor=#647687;strokeColor=#314354;rounded=0;align=center;verticalAlign=middle;fontFamily=Helvetica;fontColor=#ffffff;gradientColor=none;" parent="1" vertex="1">
          <mxGeometry x="840" y="680" width="20" height="20" as="geometry" />
        </mxCell>
        <mxCell id="Bp6myUyQwJXxxmk4WZvx-170" style="edgeStyle=orthogonalEdgeStyle;rounded=1;orthogonalLoop=1;jettySize=auto;html=1;exitX=1;exitY=0.5;exitDx=0;exitDy=0;dashed=1;strokeColor=light-dark(#76608A,#A18EB3);align=center;verticalAlign=middle;fontFamily=Helvetica;fontSize=11;fontColor=default;labelBackgroundColor=default;endArrow=none;endFill=0;fillColor=#76608a;strokeWidth=2;" parent="1" source="Bp6myUyQwJXxxmk4WZvx-171" target="Bp6myUyQwJXxxmk4WZvx-172" edge="1">
          <mxGeometry relative="1" as="geometry" />
        </mxCell>
        <mxCell id="Bp6myUyQwJXxxmk4WZvx-171" value="" style="ellipse;whiteSpace=wrap;html=1;aspect=fixed;fontSize=12;fillColor=#76608a;strokeColor=#432D57;align=center;verticalAlign=middle;fontFamily=Helvetica;fontColor=#ffffff;rounded=0;gradientColor=none;" parent="1" vertex="1">
          <mxGeometry x="780" y="760" width="20" height="20" as="geometry" />
        </mxCell>
        <mxCell id="Bp6myUyQwJXxxmk4WZvx-273" style="edgeStyle=orthogonalEdgeStyle;rounded=1;orthogonalLoop=1;jettySize=auto;html=1;exitX=1;exitY=0.5;exitDx=0;exitDy=0;entryX=0;entryY=0.5;entryDx=0;entryDy=0;dashed=1;strokeColor=light-dark(#76608A,#A18EB3);align=center;verticalAlign=middle;fontFamily=Helvetica;fontSize=11;fontColor=default;labelBackgroundColor=default;endArrow=none;endFill=0;fillColor=#76608a;strokeWidth=2;" parent="1" source="D5p6vvqvgfSBNJeM-XyV-146" edge="1">
          <mxGeometry relative="1" as="geometry">
            <Array as="points">
              <mxPoint x="1400" y="770" />
              <mxPoint x="1400" y="250" />
            </Array>
            <mxPoint x="1449.9999999999482" y="250" as="targetPoint" />
            <mxPoint x="880.0000000000523" y="770" as="sourcePoint" />
          </mxGeometry>
        </mxCell>
        <mxCell id="Bp6myUyQwJXxxmk4WZvx-172" value="" style="ellipse;whiteSpace=wrap;html=1;aspect=fixed;fontSize=12;fillColor=#76608a;strokeColor=#432D57;align=center;verticalAlign=middle;fontFamily=Helvetica;fontColor=#ffffff;rounded=0;gradientColor=none;" parent="1" vertex="1">
          <mxGeometry x="840" y="760" width="20" height="20" as="geometry" />
        </mxCell>
        <mxCell id="Bp6myUyQwJXxxmk4WZvx-190" style="edgeStyle=orthogonalEdgeStyle;rounded=1;orthogonalLoop=1;jettySize=auto;html=1;exitX=1;exitY=0.5;exitDx=0;exitDy=0;dashed=1;strokeColor=#d79b00;align=center;verticalAlign=middle;fontFamily=Helvetica;fontSize=10;fontColor=#FFB570;labelBackgroundColor=default;endArrow=none;endFill=0;fillColor=#ffe6cc;strokeWidth=2;" parent="1" edge="1">
          <mxGeometry relative="1" as="geometry">
            <mxPoint x="780" y="1080" as="targetPoint" />
          </mxGeometry>
        </mxCell>
        <mxCell id="Bp6myUyQwJXxxmk4WZvx-192" style="edgeStyle=orthogonalEdgeStyle;rounded=1;orthogonalLoop=1;jettySize=auto;html=1;exitX=1;exitY=0.5;exitDx=0;exitDy=0;entryX=0;entryY=0.5;entryDx=0;entryDy=0;dashed=1;strokeColor=#82b366;align=center;verticalAlign=middle;fontFamily=Helvetica;fontSize=11;fontColor=default;labelBackgroundColor=default;endArrow=none;endFill=0;fillColor=#d5e8d4;strokeWidth=2;" parent="1" edge="1">
          <mxGeometry relative="1" as="geometry">
            <mxPoint x="739.9999999999491" y="1160" as="sourcePoint" />
          </mxGeometry>
        </mxCell>
        <mxCell id="Bp6myUyQwJXxxmk4WZvx-200" style="edgeStyle=orthogonalEdgeStyle;rounded=1;orthogonalLoop=1;jettySize=auto;html=1;exitX=1;exitY=0.5;exitDx=0;exitDy=0;dashed=1;strokeColor=#82b366;align=center;verticalAlign=middle;fontFamily=Helvetica;fontSize=11;fontColor=default;labelBackgroundColor=default;endArrow=none;endFill=0;fillColor=#d5e8d4;strokeWidth=2;" parent="1" edge="1">
          <mxGeometry relative="1" as="geometry">
            <mxPoint x="800" y="1160" as="sourcePoint" />
          </mxGeometry>
        </mxCell>
        <mxCell id="Bp6myUyQwJXxxmk4WZvx-242" style="edgeStyle=orthogonalEdgeStyle;rounded=1;orthogonalLoop=1;jettySize=auto;html=1;exitX=1;exitY=0.5;exitDx=0;exitDy=0;entryX=0;entryY=0.5;entryDx=0;entryDy=0;dashed=1;strokeColor=light-dark(#76608A,#A18EB3);align=center;verticalAlign=middle;fontFamily=Helvetica;fontSize=11;fontColor=default;labelBackgroundColor=default;endArrow=none;endFill=0;fillColor=#76608a;strokeWidth=2;" parent="1" source="Bp6myUyQwJXxxmk4WZvx-210" target="Bp6myUyQwJXxxmk4WZvx-236" edge="1">
          <mxGeometry relative="1" as="geometry" />
        </mxCell>
        <mxCell id="Bp6myUyQwJXxxmk4WZvx-210" value="" style="ellipse;whiteSpace=wrap;html=1;aspect=fixed;fillColor=#76608a;strokeColor=#432D57;align=center;verticalAlign=middle;fontFamily=Helvetica;fontSize=12;fontColor=#ffffff;" parent="1" vertex="1">
          <mxGeometry x="870" y="200" width="20" height="20" as="geometry" />
        </mxCell>
        <mxCell id="Bp6myUyQwJXxxmk4WZvx-211" value="" style="ellipse;whiteSpace=wrap;html=1;aspect=fixed;fillColor=#647687;strokeColor=#314354;rounded=0;align=center;verticalAlign=middle;fontFamily=Helvetica;fontSize=12;fontColor=#ffffff;gradientColor=none;" parent="1" vertex="1">
          <mxGeometry x="870" y="120" width="20" height="20" as="geometry" />
        </mxCell>
        <mxCell id="Bp6myUyQwJXxxmk4WZvx-213" style="edgeStyle=orthogonalEdgeStyle;rounded=1;orthogonalLoop=1;jettySize=auto;html=1;dashed=1;strokeColor=light-dark(#647687,#7D8C9B);align=center;verticalAlign=middle;fontFamily=Helvetica;fontSize=10;fontColor=#FFB570;labelBackgroundColor=default;endArrow=none;endFill=0;fillColor=#ffe6cc;entryX=1;entryY=0.5;entryDx=0;entryDy=0;exitX=0;exitY=0.5;exitDx=0;exitDy=0;strokeWidth=2;" parent="1" source="Bp6myUyQwJXxxmk4WZvx-246" target="Bp6myUyQwJXxxmk4WZvx-211" edge="1">
          <mxGeometry relative="1" as="geometry">
            <mxPoint x="1110" y="130" as="sourcePoint" />
            <mxPoint x="240" y="140" as="targetPoint" />
          </mxGeometry>
        </mxCell>
        <mxCell id="Bp6myUyQwJXxxmk4WZvx-218" value="" style="edgeStyle=orthogonalEdgeStyle;rounded=1;orthogonalLoop=1;jettySize=auto;html=1;entryX=0;entryY=0.5;entryDx=0;entryDy=0;dashed=1;strokeColor=light-dark(#647687,#7D8C9B);align=center;verticalAlign=middle;fontFamily=Helvetica;fontSize=10;fontColor=#FFB570;labelBackgroundColor=default;endArrow=none;endFill=0;fillColor=#ffe6cc;strokeWidth=2;" parent="1" edge="1">
          <mxGeometry relative="1" as="geometry">
            <mxPoint x="890" y="130" as="sourcePoint" />
            <mxPoint x="950" y="170" as="targetPoint" />
            <Array as="points">
              <mxPoint x="890" y="131" />
              <mxPoint x="910" y="131" />
              <mxPoint x="910" y="170" />
            </Array>
          </mxGeometry>
        </mxCell>
        <mxCell id="Bp6myUyQwJXxxmk4WZvx-219" value="" style="edgeStyle=orthogonalEdgeStyle;rounded=1;orthogonalLoop=1;jettySize=auto;html=1;entryX=0;entryY=0.5;entryDx=0;entryDy=0;dashed=1;strokeColor=light-dark(#76608A,#A18EB3);align=center;verticalAlign=middle;fontFamily=Helvetica;fontSize=11;fontColor=default;labelBackgroundColor=default;endArrow=none;endFill=0;fillColor=#76608a;strokeWidth=2;" parent="1" edge="1">
          <mxGeometry relative="1" as="geometry">
            <mxPoint x="890" y="209.97000000000003" as="sourcePoint" />
            <mxPoint x="950" y="249.97000000000003" as="targetPoint" />
            <Array as="points">
              <mxPoint x="890" y="210.97000000000003" />
              <mxPoint x="910" y="210.97000000000003" />
              <mxPoint x="910" y="249.97000000000003" />
            </Array>
          </mxGeometry>
        </mxCell>
        <mxCell id="Bp6myUyQwJXxxmk4WZvx-220" style="edgeStyle=orthogonalEdgeStyle;rounded=1;orthogonalLoop=1;jettySize=auto;html=1;exitX=1;exitY=0.5;exitDx=0;exitDy=0;dashed=1;strokeColor=light-dark(#647687,#7D8C9B);align=center;verticalAlign=middle;fontFamily=Helvetica;fontSize=10;fontColor=#FFB570;labelBackgroundColor=default;endArrow=none;endFill=0;fillColor=#ffe6cc;strokeWidth=2;" parent="1" source="Bp6myUyQwJXxxmk4WZvx-221" target="Bp6myUyQwJXxxmk4WZvx-228" edge="1">
          <mxGeometry relative="1" as="geometry" />
        </mxCell>
        <mxCell id="Bp6myUyQwJXxxmk4WZvx-221" value="" style="ellipse;whiteSpace=wrap;html=1;aspect=fixed;fontSize=12;fillColor=#647687;strokeColor=#314354;rounded=0;align=center;verticalAlign=middle;fontFamily=Helvetica;fontColor=#ffffff;gradientColor=none;" parent="1" vertex="1">
          <mxGeometry x="950" y="160" width="20" height="20" as="geometry" />
        </mxCell>
        <mxCell id="Bp6myUyQwJXxxmk4WZvx-222" style="edgeStyle=orthogonalEdgeStyle;rounded=1;orthogonalLoop=1;jettySize=auto;html=1;exitX=1;exitY=0.5;exitDx=0;exitDy=0;entryX=0;entryY=0.5;entryDx=0;entryDy=0;dashed=1;strokeColor=light-dark(#76608A,#A18EB3);align=center;verticalAlign=middle;fontFamily=Helvetica;fontSize=11;fontColor=default;labelBackgroundColor=default;endArrow=none;endFill=0;fillColor=#76608a;strokeWidth=2;" parent="1" source="Bp6myUyQwJXxxmk4WZvx-223" target="Bp6myUyQwJXxxmk4WZvx-231" edge="1">
          <mxGeometry relative="1" as="geometry" />
        </mxCell>
        <mxCell id="Bp6myUyQwJXxxmk4WZvx-223" value="" style="ellipse;whiteSpace=wrap;html=1;aspect=fixed;fontSize=12;fillColor=#76608a;strokeColor=#432D57;align=center;verticalAlign=middle;fontFamily=Helvetica;fontColor=#ffffff;" parent="1" vertex="1">
          <mxGeometry x="950" y="240" width="20" height="20" as="geometry" />
        </mxCell>
        <mxCell id="Bp6myUyQwJXxxmk4WZvx-227" style="edgeStyle=orthogonalEdgeStyle;rounded=1;orthogonalLoop=1;jettySize=auto;html=1;exitX=1;exitY=0.5;exitDx=0;exitDy=0;dashed=1;strokeColor=light-dark(#647687,#7D8C9B);align=center;verticalAlign=middle;fontFamily=Helvetica;fontSize=10;fontColor=#FFB570;labelBackgroundColor=default;endArrow=none;endFill=0;fillColor=#ffe6cc;entryX=0;entryY=0.5;entryDx=0;entryDy=0;strokeWidth=2;" parent="1" source="Bp6myUyQwJXxxmk4WZvx-228" target="Bp6myUyQwJXxxmk4WZvx-234" edge="1">
          <mxGeometry relative="1" as="geometry">
            <mxPoint x="1070" y="170" as="targetPoint" />
          </mxGeometry>
        </mxCell>
        <mxCell id="Bp6myUyQwJXxxmk4WZvx-228" value="" style="ellipse;whiteSpace=wrap;html=1;aspect=fixed;fontSize=12;fillColor=#647687;strokeColor=#314354;rounded=0;align=center;verticalAlign=middle;fontFamily=Helvetica;fontColor=#ffffff;gradientColor=none;" parent="1" vertex="1">
          <mxGeometry x="1010" y="160" width="20" height="20" as="geometry" />
        </mxCell>
        <mxCell id="Bp6myUyQwJXxxmk4WZvx-231" value="" style="ellipse;whiteSpace=wrap;html=1;aspect=fixed;fontSize=12;fillColor=#76608a;strokeColor=#432D57;align=center;verticalAlign=middle;fontFamily=Helvetica;fontColor=#ffffff;" parent="1" vertex="1">
          <mxGeometry x="1010" y="240" width="20" height="20" as="geometry" />
        </mxCell>
        <mxCell id="Bp6myUyQwJXxxmk4WZvx-249" style="edgeStyle=orthogonalEdgeStyle;rounded=1;orthogonalLoop=1;jettySize=auto;html=1;exitX=1;exitY=0.5;exitDx=0;exitDy=0;entryX=0;entryY=0.5;entryDx=0;entryDy=0;dashed=1;strokeColor=light-dark(#647687,#7D8C9B);align=center;verticalAlign=middle;fontFamily=Helvetica;fontSize=10;fontColor=#FFB570;labelBackgroundColor=default;endArrow=none;endFill=0;fillColor=#ffe6cc;strokeWidth=2;" parent="1" source="Bp6myUyQwJXxxmk4WZvx-255" target="Bp6myUyQwJXxxmk4WZvx-246" edge="1">
          <mxGeometry relative="1" as="geometry">
            <Array as="points">
              <mxPoint x="1480" y="170" />
              <mxPoint x="1480" y="130" />
            </Array>
          </mxGeometry>
        </mxCell>
        <mxCell id="Bp6myUyQwJXxxmk4WZvx-234" value="" style="ellipse;whiteSpace=wrap;html=1;aspect=fixed;fontSize=12;fillColor=#647687;strokeColor=#314354;rounded=0;align=center;verticalAlign=middle;fontFamily=Helvetica;fontColor=#ffffff;gradientColor=none;" parent="1" vertex="1">
          <mxGeometry x="1190" y="160" width="20" height="20" as="geometry" />
        </mxCell>
        <mxCell id="Bp6myUyQwJXxxmk4WZvx-237" style="edgeStyle=orthogonalEdgeStyle;rounded=1;orthogonalLoop=1;jettySize=auto;html=1;exitX=1;exitY=0.5;exitDx=0;exitDy=0;entryX=0;entryY=0.5;entryDx=0;entryDy=0;dashed=1;strokeColor=light-dark(#76608A,#A18EB3);align=center;verticalAlign=middle;fontFamily=Helvetica;fontSize=11;fontColor=default;labelBackgroundColor=default;endArrow=none;endFill=0;fillColor=#76608a;strokeWidth=2;" parent="1" source="Bp6myUyQwJXxxmk4WZvx-235" target="Bp6myUyQwJXxxmk4WZvx-236" edge="1">
          <mxGeometry relative="1" as="geometry">
            <Array as="points">
              <mxPoint x="1480" y="250" />
              <mxPoint x="1480" y="210" />
            </Array>
          </mxGeometry>
        </mxCell>
        <mxCell id="Bp6myUyQwJXxxmk4WZvx-235" value="" style="ellipse;whiteSpace=wrap;html=1;aspect=fixed;fontSize=12;fillColor=#76608a;strokeColor=#432D57;align=center;verticalAlign=middle;fontFamily=Helvetica;fontColor=#ffffff;" parent="1" vertex="1">
          <mxGeometry x="1430" y="240" width="20" height="20" as="geometry" />
        </mxCell>
        <mxCell id="Bp6myUyQwJXxxmk4WZvx-238" style="edgeStyle=orthogonalEdgeStyle;rounded=1;orthogonalLoop=1;jettySize=auto;html=1;dashed=1;endArrow=none;endFill=0;fillColor=#76608a;strokeColor=light-dark(#76608A,#A18EB3);exitX=1;exitY=0.5;exitDx=0;exitDy=0;strokeWidth=2;align=center;verticalAlign=middle;fontFamily=Helvetica;fontSize=11;fontColor=default;labelBackgroundColor=default;" parent="1" source="Bp6myUyQwJXxxmk4WZvx-236" edge="1">
          <mxGeometry relative="1" as="geometry">
            <mxPoint x="1680" y="210" as="targetPoint" />
            <mxPoint x="1500" y="221" as="sourcePoint" />
          </mxGeometry>
        </mxCell>
        <mxCell id="Bp6myUyQwJXxxmk4WZvx-236" value="" style="ellipse;whiteSpace=wrap;html=1;aspect=fixed;fillColor=#76608a;strokeColor=#432D57;align=center;verticalAlign=middle;fontFamily=Helvetica;fontSize=12;fontColor=#ffffff;" parent="1" vertex="1">
          <mxGeometry x="1510" y="200" width="20" height="20" as="geometry" />
        </mxCell>
        <mxCell id="Bp6myUyQwJXxxmk4WZvx-246" value="" style="ellipse;whiteSpace=wrap;html=1;aspect=fixed;fontSize=12;fillColor=#647687;strokeColor=#314354;rounded=0;align=center;verticalAlign=middle;fontFamily=Helvetica;fontColor=#ffffff;gradientColor=none;" parent="1" vertex="1">
          <mxGeometry x="1510" y="120" width="20" height="20" as="geometry" />
        </mxCell>
        <mxCell id="Bp6myUyQwJXxxmk4WZvx-247" style="edgeStyle=orthogonalEdgeStyle;rounded=1;orthogonalLoop=1;jettySize=auto;html=1;dashed=1;strokeColor=light-dark(#647687,#7D8C9B);align=center;verticalAlign=middle;fontFamily=Helvetica;fontSize=10;fontColor=#FFB570;labelBackgroundColor=default;endArrow=none;endFill=0;fillColor=#ffe6cc;entryX=1;entryY=0.5;entryDx=0;entryDy=0;strokeWidth=2;" parent="1" target="Bp6myUyQwJXxxmk4WZvx-246" edge="1">
          <mxGeometry relative="1" as="geometry">
            <mxPoint x="1680" y="130" as="sourcePoint" />
            <mxPoint x="1480" y="139.5" as="targetPoint" />
          </mxGeometry>
        </mxCell>
        <mxCell id="Bp6myUyQwJXxxmk4WZvx-254" value="" style="edgeStyle=orthogonalEdgeStyle;rounded=1;orthogonalLoop=1;jettySize=auto;html=1;exitX=1;exitY=0.5;exitDx=0;exitDy=0;entryX=0;entryY=0.5;entryDx=0;entryDy=0;dashed=1;strokeColor=light-dark(#647687,#7D8C9B);align=center;verticalAlign=middle;fontFamily=Helvetica;fontSize=10;fontColor=#FFB570;labelBackgroundColor=default;endArrow=none;endFill=0;fillColor=#ffe6cc;strokeWidth=2;" parent="1" source="Bp6myUyQwJXxxmk4WZvx-234" target="Bp6myUyQwJXxxmk4WZvx-255" edge="1">
          <mxGeometry relative="1" as="geometry">
            <mxPoint x="1210" y="170" as="sourcePoint" />
            <mxPoint x="1230" y="170" as="targetPoint" />
          </mxGeometry>
        </mxCell>
        <mxCell id="Bp6myUyQwJXxxmk4WZvx-255" value="" style="ellipse;whiteSpace=wrap;html=1;aspect=fixed;fontSize=12;fillColor=#647687;strokeColor=#314354;rounded=0;align=center;verticalAlign=middle;fontFamily=Helvetica;fontColor=#ffffff;gradientColor=none;" parent="1" vertex="1">
          <mxGeometry x="1265" y="160" width="20" height="20" as="geometry" />
        </mxCell>
        <mxCell id="Bp6myUyQwJXxxmk4WZvx-258" value="" style="edgeStyle=orthogonalEdgeStyle;rounded=1;orthogonalLoop=1;jettySize=auto;html=1;exitX=1;exitY=0.5;exitDx=0;exitDy=0;dashed=1;strokeColor=light-dark(#76608A,#A18EB3);align=center;verticalAlign=middle;fontFamily=Helvetica;fontSize=11;fontColor=default;labelBackgroundColor=default;endArrow=none;endFill=0;fillColor=#76608a;entryX=0;entryY=0.5;entryDx=0;entryDy=0;strokeWidth=2;" parent="1" source="Bp6myUyQwJXxxmk4WZvx-259" target="Bp6myUyQwJXxxmk4WZvx-235" edge="1">
          <mxGeometry relative="1" as="geometry">
            <mxPoint x="1030" y="250" as="sourcePoint" />
            <mxPoint x="1390" y="250" as="targetPoint" />
          </mxGeometry>
        </mxCell>
        <mxCell id="Bp6myUyQwJXxxmk4WZvx-260" value="" style="edgeStyle=orthogonalEdgeStyle;rounded=1;orthogonalLoop=1;jettySize=auto;html=1;exitX=1;exitY=0.5;exitDx=0;exitDy=0;dashed=1;strokeColor=light-dark(#76608A,#A18EB3);align=center;verticalAlign=middle;fontFamily=Helvetica;fontSize=11;fontColor=default;labelBackgroundColor=default;endArrow=none;endFill=0;fillColor=#76608a;entryX=0;entryY=0.5;entryDx=0;entryDy=0;strokeWidth=2;" parent="1" source="Bp6myUyQwJXxxmk4WZvx-231" target="Bp6myUyQwJXxxmk4WZvx-259" edge="1">
          <mxGeometry relative="1" as="geometry">
            <mxPoint x="1030" y="250" as="sourcePoint" />
            <mxPoint x="1390" y="250" as="targetPoint" />
          </mxGeometry>
        </mxCell>
        <mxCell id="Bp6myUyQwJXxxmk4WZvx-259" value="" style="ellipse;whiteSpace=wrap;html=1;aspect=fixed;fontSize=12;fillColor=#76608a;strokeColor=#432D57;align=center;verticalAlign=middle;fontFamily=Helvetica;fontColor=#ffffff;" parent="1" vertex="1">
          <mxGeometry x="1350" y="240" width="20" height="20" as="geometry" />
        </mxCell>
        <mxCell id="BTz_KQyNPQgfA53c2MJy-116" value="" style="endArrow=none;html=1;rounded=0;entryX=1;entryY=0;entryDx=0;entryDy=0;" parent="1" edge="1">
          <mxGeometry width="50" height="50" relative="1" as="geometry">
            <mxPoint x="1560" y="854" as="sourcePoint" />
            <mxPoint x="1560" as="targetPoint" />
            <Array as="points">
              <mxPoint x="1560" y="300" />
            </Array>
          </mxGeometry>
        </mxCell>
        <mxCell id="BTz_KQyNPQgfA53c2MJy-118" value="Mono-Repo" style="text;html=1;align=center;verticalAlign=middle;whiteSpace=wrap;rounded=0;fontSize=22;fontStyle=1" parent="1" vertex="1">
          <mxGeometry x="1560" width="140" height="30" as="geometry" />
        </mxCell>
        <mxCell id="OCvB6RJx3Zg24RctwsK6-131" value="Preparation-Branches" style="text;html=1;align=left;verticalAlign=middle;whiteSpace=wrap;rounded=0;fontSize=20;fontStyle=1" parent="1" vertex="1">
          <mxGeometry x="620" y="368" width="240" height="65" as="geometry" />
        </mxCell>
        <mxCell id="OCvB6RJx3Zg24RctwsK6-137" value="Integration-Branches" style="text;html=1;align=left;verticalAlign=middle;whiteSpace=wrap;rounded=0;fontSize=22;fontStyle=1" parent="1" vertex="1">
          <mxGeometry x="850" y="50" width="410" height="30" as="geometry" />
        </mxCell>
        <mxCell id="OCvB6RJx3Zg24RctwsK6-139" value="Multi-Repo" style="text;html=1;align=center;verticalAlign=middle;whiteSpace=wrap;rounded=0;fontSize=22;fontStyle=1" parent="1" vertex="1">
          <mxGeometry x="1410" width="140" height="30" as="geometry" />
        </mxCell>
        <mxCell id="OCvB6RJx3Zg24RctwsK6-140" value="" style="endArrow=classic;html=1;rounded=0;" parent="1" edge="1">
          <mxGeometry width="50" height="50" relative="1" as="geometry">
            <mxPoint x="-89" y="40" as="sourcePoint" />
            <mxPoint x="1560" y="40" as="targetPoint" />
          </mxGeometry>
        </mxCell>
        <mxCell id="OCvB6RJx3Zg24RctwsK6-142" value="" style="endArrow=classic;html=1;rounded=0;" parent="1" edge="1">
          <mxGeometry width="50" height="50" relative="1" as="geometry">
            <mxPoint x="1560" y="40" as="sourcePoint" />
            <mxPoint x="1690" y="40" as="targetPoint" />
          </mxGeometry>
        </mxCell>
        <mxCell id="D5p6vvqvgfSBNJeM-XyV-117" value="" style="edgeStyle=orthogonalEdgeStyle;rounded=1;orthogonalLoop=1;jettySize=auto;html=1;exitX=1;exitY=0.5;exitDx=0;exitDy=0;entryX=0;entryY=0.5;entryDx=0;entryDy=0;dashed=1;strokeColor=light-dark(#647687,#7D8C9B);align=center;verticalAlign=middle;fontFamily=Helvetica;fontSize=10;fontColor=#FFB570;labelBackgroundColor=default;endArrow=none;endFill=0;fillColor=#ffe6cc;strokeWidth=2;" parent="1" source="C2meHH0dxPaNBHatuUxs-331" target="D5p6vvqvgfSBNJeM-XyV-116" edge="1">
          <mxGeometry relative="1" as="geometry">
            <Array as="points" />
            <mxPoint x="860" y="500" as="sourcePoint" />
            <mxPoint x="1190" y="110" as="targetPoint" />
          </mxGeometry>
        </mxCell>
        <mxCell id="D5p6vvqvgfSBNJeM-XyV-116" value="" style="ellipse;whiteSpace=wrap;html=1;aspect=fixed;fontSize=12;fillColor=#647687;strokeColor=#314354;rounded=0;align=center;verticalAlign=middle;fontFamily=Helvetica;fontColor=#ffffff;gradientColor=none;" parent="1" vertex="1">
          <mxGeometry x="950" y="490" width="20" height="20" as="geometry" />
        </mxCell>
        <mxCell id="D5p6vvqvgfSBNJeM-XyV-125" value="" style="edgeStyle=orthogonalEdgeStyle;rounded=1;orthogonalLoop=1;jettySize=auto;html=1;exitX=1;exitY=0.5;exitDx=0;exitDy=0;entryX=0;entryY=0.5;entryDx=0;entryDy=0;dashed=1;strokeColor=light-dark(#76608A,#A18EB3);align=center;verticalAlign=middle;fontFamily=Helvetica;fontSize=11;fontColor=default;labelBackgroundColor=default;endArrow=none;endFill=0;fillColor=#76608a;strokeWidth=2;" parent="1" source="C2meHH0dxPaNBHatuUxs-334" target="D5p6vvqvgfSBNJeM-XyV-124" edge="1">
          <mxGeometry relative="1" as="geometry">
            <Array as="points" />
            <mxPoint x="860" y="580" as="sourcePoint" />
            <mxPoint x="1350" y="190" as="targetPoint" />
          </mxGeometry>
        </mxCell>
        <mxCell id="D5p6vvqvgfSBNJeM-XyV-124" value="" style="ellipse;whiteSpace=wrap;html=1;aspect=fixed;fontSize=12;fillColor=#76608a;strokeColor=#432D57;align=center;verticalAlign=middle;fontFamily=Helvetica;fontColor=#ffffff;rounded=0;gradientColor=none;" parent="1" vertex="1">
          <mxGeometry x="1030" y="570" width="20" height="20" as="geometry" />
        </mxCell>
        <mxCell id="D5p6vvqvgfSBNJeM-XyV-126" style="edgeStyle=orthogonalEdgeStyle;rounded=1;orthogonalLoop=1;jettySize=auto;html=1;exitX=1;exitY=0.5;exitDx=0;exitDy=0;entryX=0;entryY=0.5;entryDx=0;entryDy=0;dashed=1;strokeColor=light-dark(#647687,#7D8C9B);strokeWidth=2;align=center;verticalAlign=middle;fontFamily=Helvetica;fontSize=10;fontColor=#FFB570;labelBackgroundColor=default;endArrow=none;endFill=0;fillColor=#ffe6cc;" parent="1" source="D5p6vvqvgfSBNJeM-XyV-116" target="D5p6vvqvgfSBNJeM-XyV-124" edge="1">
          <mxGeometry relative="1" as="geometry" />
        </mxCell>
        <mxCell id="D5p6vvqvgfSBNJeM-XyV-143" value="" style="ellipse;whiteSpace=wrap;html=1;aspect=fixed;fontSize=12;fillColor=#647687;strokeColor=#314354;rounded=0;align=center;verticalAlign=middle;fontFamily=Helvetica;fontColor=#ffffff;gradientColor=none;" parent="1" vertex="1">
          <mxGeometry x="950" y="680" width="20" height="20" as="geometry" />
        </mxCell>
        <mxCell id="D5p6vvqvgfSBNJeM-XyV-146" value="" style="ellipse;whiteSpace=wrap;html=1;aspect=fixed;fontSize=12;fillColor=#76608a;strokeColor=#432D57;align=center;verticalAlign=middle;fontFamily=Helvetica;fontColor=#ffffff;rounded=0;gradientColor=none;" parent="1" vertex="1">
          <mxGeometry x="1030" y="760" width="20" height="20" as="geometry" />
        </mxCell>
        <mxCell id="D5p6vvqvgfSBNJeM-XyV-147" style="edgeStyle=orthogonalEdgeStyle;rounded=1;orthogonalLoop=1;jettySize=auto;html=1;exitX=1;exitY=0.5;exitDx=0;exitDy=0;entryX=0;entryY=0.5;entryDx=0;entryDy=0;dashed=1;strokeColor=light-dark(#647687,#7D8C9B);strokeWidth=2;align=center;verticalAlign=middle;fontFamily=Helvetica;fontSize=10;fontColor=#FFB570;labelBackgroundColor=default;endArrow=none;endFill=0;fillColor=#ffe6cc;" parent="1" source="D5p6vvqvgfSBNJeM-XyV-143" target="D5p6vvqvgfSBNJeM-XyV-146" edge="1">
          <mxGeometry relative="1" as="geometry" />
        </mxCell>
        <mxCell id="D5p6vvqvgfSBNJeM-XyV-151" value="Merge to avoid Merge-Conflicts" style="text;html=1;align=left;verticalAlign=middle;whiteSpace=wrap;rounded=0;fontSize=20;fontStyle=1" parent="1" vertex="1">
          <mxGeometry x="935" y="360.5" width="337" height="80" as="geometry" />
        </mxCell>
        <mxCell id="C2meHH0dxPaNBHatuUxs-219" style="edgeStyle=orthogonalEdgeStyle;rounded=1;orthogonalLoop=1;jettySize=auto;html=1;exitX=1;exitY=0.5;exitDx=0;exitDy=0;entryX=0;entryY=0.5;entryDx=0;entryDy=0;dashed=1;strokeColor=#1BA1E2;align=center;verticalAlign=middle;fontFamily=Helvetica;fontSize=12;fontColor=#FFB570;labelBackgroundColor=default;endArrow=none;endFill=0;fillColor=#1ba1e2;strokeWidth=2;" parent="1" source="C2meHH0dxPaNBHatuUxs-216" target="C2meHH0dxPaNBHatuUxs-224" edge="1">
          <mxGeometry relative="1" as="geometry">
            <Array as="points">
              <mxPoint x="750" y="340" />
              <mxPoint x="750" y="210" />
            </Array>
          </mxGeometry>
        </mxCell>
        <mxCell id="C2meHH0dxPaNBHatuUxs-200" value="" style="ellipse;whiteSpace=wrap;html=1;aspect=fixed;fillColor=#647687;strokeColor=#314354;rounded=0;align=center;verticalAlign=middle;fontFamily=Helvetica;fontSize=12;fontColor=#ffffff;gradientColor=none;" parent="1" vertex="1">
          <mxGeometry x="330" y="120" width="20" height="20" as="geometry" />
        </mxCell>
        <mxCell id="zQ7LIbgqWjiqm-StGWag-116" style="edgeStyle=orthogonalEdgeStyle;rounded=1;orthogonalLoop=1;jettySize=auto;html=1;dashed=1;strokeColor=light-dark(#647687,#7D8C9B);align=center;verticalAlign=middle;fontFamily=Helvetica;fontSize=10;fontColor=#FFB570;labelBackgroundColor=default;endArrow=none;endFill=0;fillColor=#ffe6cc;strokeWidth=2;entryX=0;entryY=0.5;entryDx=0;entryDy=0;exitX=1;exitY=0.5;exitDx=0;exitDy=0;" edge="1" parent="1" source="Bp6myUyQwJXxxmk4WZvx-169" target="D5p6vvqvgfSBNJeM-XyV-143">
          <mxGeometry relative="1" as="geometry">
            <mxPoint x="900" y="700" as="sourcePoint" />
            <mxPoint x="900" y="689.74" as="targetPoint" />
          </mxGeometry>
        </mxCell>
        <mxCell id="zQ7LIbgqWjiqm-StGWag-117" style="edgeStyle=orthogonalEdgeStyle;rounded=1;orthogonalLoop=1;jettySize=auto;html=1;exitX=1;exitY=0.5;exitDx=0;exitDy=0;entryX=0;entryY=0.5;entryDx=0;entryDy=0;dashed=1;strokeColor=light-dark(#647687,#7D8C9B);align=center;verticalAlign=middle;fontFamily=Helvetica;fontSize=10;fontColor=#FFB570;labelBackgroundColor=default;endArrow=none;endFill=0;fillColor=#ffe6cc;strokeWidth=2;" edge="1" parent="1" source="D5p6vvqvgfSBNJeM-XyV-143">
          <mxGeometry relative="1" as="geometry">
            <Array as="points">
              <mxPoint x="1240" y="690" />
              <mxPoint x="1240" y="170" />
            </Array>
            <mxPoint x="1050" y="500" as="sourcePoint" />
            <mxPoint x="1270" y="170" as="targetPoint" />
          </mxGeometry>
        </mxCell>
        <mxCell id="zQ7LIbgqWjiqm-StGWag-118" style="edgeStyle=orthogonalEdgeStyle;rounded=1;orthogonalLoop=1;jettySize=auto;html=1;exitX=1;exitY=0.5;exitDx=0;exitDy=0;dashed=1;strokeColor=light-dark(#76608A,#A18EB3);align=center;verticalAlign=middle;fontFamily=Helvetica;fontSize=11;fontColor=default;labelBackgroundColor=default;endArrow=none;endFill=0;fillColor=#76608a;strokeWidth=2;entryX=0;entryY=0.5;entryDx=0;entryDy=0;" edge="1" parent="1" target="D5p6vvqvgfSBNJeM-XyV-146">
          <mxGeometry relative="1" as="geometry">
            <mxPoint x="860" y="769.74" as="sourcePoint" />
            <mxPoint x="900" y="769.74" as="targetPoint" />
          </mxGeometry>
        </mxCell>
      </root>
    </mxGraphModel>
  </diagram>
</mxfile>
